<?xml version="1.0" encoding="utf-8"?>
<!-- Generator: Adobe Illustrator 14.0.0, SVG Export Plug-In . SVG Version: 6.00 Build 43363)  -->
<!DOCTYPE svg PUBLIC "-//W3C//DTD SVG 1.1//EN" "http://www.w3.org/Graphics/SVG/1.1/DTD/svg11.dtd">
<svg version="1.1" id="Layer_1" xmlns="http://www.w3.org/2000/svg" xmlns:xlink="http://www.w3.org/1999/xlink" x="0px" y="0px"
	 width="491px" height="341px" viewBox="0 0 491 341" enable-background="new 0 0 491 341" xml:space="preserve">
<linearGradient id="SVGID_1_" gradientUnits="userSpaceOnUse" x1="7.0845" y1="3.3062" x2="479.0845" y2="334.3062">
	<stop  offset="0" style="stop-color:#FFFFFF"/>
	<stop  offset="1" style="stop-color:#E6E7E8"/>
</linearGradient>
<rect fill="url(#SVGID_1_)" width="491" height="341"/>
<g>
	<path opacity="0.1" fill="#414042" d="M359.943,145.595c4.494,4.807,11.549,7.791,21.536,9.106l-0.198,12.534
		c-0.012,0.68,0.435,1.269,1.064,1.459c0.144,0.476,0.518,0.854,1,1c0.17,0.563,0.664,0.992,1.278,1.057l14.424,1.518
		c0.052,0.005,0.104,0.008,0.157,0.008c0.374,0,0.736-0.14,1.016-0.396c0.316-0.292,0.492-0.706,0.483-1.137l-0.339-15.828
		c19.148-2.47,26.811-13.466,29.863-22.369c3.584-10.454-2.525-21.296-9.397-27.918c-0.341-0.353-0.687-0.7-1-1
		c-3.857-4.001-8.476-7.111-13.005-8.758c-2.291-0.833-4.939-1.693-7.561-2.534l0.311-29.038c1.223,0.568,2.369,1.302,3.427,2.196
		c4.243,4.996,5.232,11.574,5.242,11.64c0.085,0.593,0.509,1.059,1.05,1.224c0.146,0.485,0.529,0.856,1,1
		c0.205,0.676,0.867,1.136,1.588,1.057l14.803-1.519c0.412-0.042,0.789-0.254,1.041-0.584c0.25-0.33,0.354-0.75,0.285-1.159
		c-1.635-9.662-5.501-17.466-11.443-23.15c-0.344-0.358-0.693-0.708-1-1c-4.242-4.423-9.679-7.68-15.78-9.467l0.157-14.701
		c0.005-0.421-0.168-0.825-0.476-1.112c-0.169-0.158-0.371-0.273-0.589-0.339c-0.076-0.25-0.217-0.479-0.411-0.661
		c-0.169-0.158-0.371-0.273-0.589-0.339c-0.076-0.25-0.217-0.479-0.411-0.661c-0.308-0.287-0.72-0.434-1.142-0.399l-14.424,1.139
		c-0.797,0.062-1.404,0.739-1.382,1.538l0.406,14.388c-12.112,1.391-26.249,6.931-28.106,24.89
		c-1.148,11.096,2.209,20.512,9.936,27.945c0.343,0.356,0.689,0.703,1,1c3.9,4.057,8.836,7.411,15.089,10.253
		c0.925,0.42,2.017,0.797,3.376,1.164l-0.492,31.213c-1.396-0.466-2.672-1.157-3.809-2.067c-4.84-5.905-4.925-15.263-4.926-15.358
		c-0.001-0.416-0.175-0.813-0.48-1.096c-0.168-0.156-0.369-0.27-0.584-0.335c-0.076-0.253-0.219-0.483-0.417-0.666
		c-0.168-0.155-0.368-0.269-0.583-0.334c-0.076-0.253-0.219-0.483-0.416-0.666c-0.306-0.282-0.718-0.423-1.129-0.396l-15.562,1.139
		c-0.713,0.052-1.29,0.601-1.379,1.31c-1.365,10.927,0.76,18.847,6.498,24.208C359.263,144.937,359.596,145.27,359.943,145.595z
		 M381.533,63.805l0.639,22.564c-3.98-1.676-6.915-3.291-8.929-4.911c-0.544-0.717-0.894-1.422-1.04-2.095
		C370.996,73.808,373.482,67.07,381.533,63.805z M399.438,111.521c2.986,0.988,5.327,2.181,7.113,3.621
		c0.967,1.199,1.663,2.503,2.128,3.982c2.641,8.402-0.444,14.742-8.694,18.032L399.438,111.521z"/>
	<g>
		<path fill="#C0AA55" d="M356.943,142.595c4.494,4.807,11.549,7.791,21.536,9.106l-0.198,12.534
			c-0.012,0.68,0.435,1.269,1.064,1.459c0.144,0.476,0.518,0.854,1,1c0.17,0.563,0.664,0.992,1.278,1.057l14.424,1.518
			c0.052,0.005,0.104,0.008,0.157,0.008c0.374,0,0.736-0.14,1.016-0.396c0.316-0.292,0.492-0.706,0.483-1.137l-0.339-15.828
			c19.148-2.47,26.811-13.466,29.863-22.369c3.584-10.454-2.525-21.296-9.397-27.918c-0.341-0.353-0.687-0.7-1-1
			c-3.857-4.001-8.476-7.111-13.005-8.758c-2.291-0.833-4.939-1.693-7.561-2.534l0.311-29.038c1.223,0.568,2.369,1.302,3.427,2.196
			c4.243,4.996,5.232,11.574,5.242,11.64c0.085,0.593,0.509,1.059,1.05,1.224c0.146,0.485,0.529,0.856,1,1
			c0.205,0.676,0.867,1.136,1.588,1.057l14.803-1.519c0.412-0.042,0.789-0.254,1.041-0.584c0.25-0.33,0.354-0.75,0.285-1.159
			c-1.635-9.662-5.501-17.466-11.443-23.15c-0.344-0.358-0.693-0.708-1-1c-4.242-4.423-9.679-7.68-15.78-9.467l0.157-14.701
			c0.005-0.421-0.168-0.825-0.476-1.112c-0.169-0.158-0.371-0.273-0.589-0.339c-0.076-0.25-0.217-0.479-0.411-0.661
			c-0.169-0.158-0.371-0.273-0.589-0.339c-0.076-0.25-0.217-0.479-0.411-0.661c-0.308-0.287-0.72-0.434-1.142-0.399l-14.424,1.139
			c-0.797,0.062-1.404,0.739-1.382,1.538l0.406,14.388c-12.112,1.391-26.249,6.931-28.106,24.89
			c-1.148,11.096,2.209,20.512,9.936,27.945c0.343,0.356,0.689,0.703,1,1c3.9,4.057,8.836,7.411,15.089,10.253
			c0.925,0.42,2.017,0.797,3.376,1.164l-0.492,31.213c-1.396-0.466-2.672-1.157-3.809-2.067c-4.84-5.905-4.925-15.263-4.926-15.358
			c-0.001-0.416-0.175-0.813-0.48-1.096c-0.168-0.156-0.369-0.27-0.584-0.335c-0.076-0.253-0.219-0.483-0.417-0.666
			c-0.168-0.155-0.368-0.269-0.583-0.334c-0.076-0.253-0.219-0.483-0.416-0.666c-0.306-0.282-0.718-0.423-1.129-0.396l-15.562,1.139
			c-0.713,0.052-1.29,0.601-1.379,1.31c-1.365,10.927,0.76,18.847,6.498,24.208C356.263,141.937,356.596,142.27,356.943,142.595z
			 M403.551,112.142c0.967,1.199,1.663,2.503,2.128,3.982c2.641,8.402-0.444,14.742-8.694,18.032l-0.547-25.636
			C399.424,109.509,401.765,110.701,403.551,112.142z M370.243,78.459c-0.544-0.717-0.894-1.422-1.04-2.095
			c-1.207-5.556,1.279-12.294,9.33-15.559l0.639,22.564C375.191,81.694,372.257,80.079,370.243,78.459z"/>
		<path opacity="0.75" fill="#F6EB16" d="M405.314,95.281c-3.049-1.108-6.729-2.263-10.574-3.499L395.1,58.13
			c11.629,3.565,13.631,17.793,13.631,17.793l14.803-1.519c-3.525-20.831-17.062-28.944-28.273-31.193l0.186-17.391l-14.424,1.139
			l0.445,15.78c-11.758,1.064-26.322,6.009-28.152,23.694c-2.277,22.014,14.514,31.752,23.152,35.679
			c1.691,0.769,3.871,1.318,6.299,1.819l-0.566,35.849c-13.693-2.585-13.703-21.347-13.703-21.347l-15.562,1.139
			c-2.238,17.909,4.705,28.842,29.096,31.011l-0.248,15.675l14.424,1.518l-0.369-17.192c17.15-1.796,26.242-10.637,29.975-21.523
			C430.365,115.777,417.84,99.835,405.314,95.281z M367.736,76.682c-1.604-7.386,2.525-15.834,14.168-18.498l0.832,29.438
			C375.057,84.617,368.693,81.084,367.736,76.682z M395.584,138.814l-0.691-32.329c6.385,1.772,12.188,4.729,14.217,11.188
			C412.486,128.417,407.172,135.93,395.584,138.814z"/>
		<path opacity="0.3" fill="#55463E" d="M406.314,96.281c-3.049-1.108-6.729-2.263-10.574-3.499L396.1,59.13
			c11.629,3.565,13.631,17.793,13.631,17.793l14.803-1.519c-3.525-20.831-17.062-28.944-28.273-31.193l0.186-17.391l-14.424,1.139
			l0.445,15.78c-11.758,1.064-26.322,6.009-28.152,23.694c-2.277,22.014,14.514,31.752,23.152,35.679
			c1.691,0.769,3.871,1.318,6.299,1.819l-0.566,35.849c-13.693-2.586-13.703-21.347-13.703-21.347l-15.562,1.139
			c-2.238,17.909,4.705,28.842,29.096,31.011l-0.248,15.675l14.424,1.518l-0.369-17.192c17.15-1.796,26.242-10.637,29.975-21.523
			C431.365,116.777,418.84,100.835,406.314,96.281z M368.736,77.682c-1.604-7.386,2.525-15.834,14.168-18.498l0.832,29.438
			C376.057,85.617,369.693,82.084,368.736,77.682z M396.584,139.814l-0.691-32.329c6.385,1.772,12.188,4.729,14.217,11.188
			C413.486,129.417,408.172,136.93,396.584,139.814z"/>
		<path opacity="0.75" fill="#FEE31C" d="M404.314,94.281c-3.049-1.108-6.729-2.263-10.574-3.499L394.1,57.13
			c11.629,3.565,13.631,17.793,13.631,17.793l14.803-1.519c-3.525-20.831-17.062-28.944-28.273-31.193l0.186-17.391l-14.424,1.139
			l0.445,15.78c-11.758,1.064-26.322,6.009-28.152,23.694c-2.277,22.014,14.514,31.752,23.152,35.679
			c1.691,0.769,3.871,1.318,6.299,1.819l-0.566,35.849c-13.693-2.585-13.703-21.347-13.703-21.347l-15.562,1.139
			c-2.238,17.909,4.705,28.842,29.096,31.011l-0.248,15.675l14.424,1.518l-0.369-17.192c17.15-1.796,26.242-10.637,29.975-21.523
			C429.365,114.777,416.84,98.835,404.314,94.281z M366.736,75.682c-1.604-7.386,2.525-15.834,14.168-18.498l0.832,29.438
			C374.057,83.617,367.693,80.084,366.736,75.682z M394.584,137.815l-0.691-32.329c6.385,1.772,12.188,4.729,14.217,11.188
			C411.486,127.417,406.172,134.93,394.584,137.815z"/>
		<linearGradient id="SVGID_2_" gradientUnits="userSpaceOnUse" x1="350.752" y1="135.23" x2="427.8031" y2="58.1788">
			<stop  offset="0" style="stop-color:#603A17;stop-opacity:0.4"/>
			<stop  offset="0.0433" style="stop-color:#643F1C;stop-opacity:0.3653"/>
			<stop  offset="0.114" style="stop-color:#6F4B2A;stop-opacity:0.3088"/>
			<stop  offset="0.2033" style="stop-color:#846245;stop-opacity:0.2373"/>
			<stop  offset="0.3077" style="stop-color:#A4886F;stop-opacity:0.1538"/>
			<stop  offset="0.4234" style="stop-color:#D2C4B6;stop-opacity:0.0613"/>
			<stop  offset="0.5" style="stop-color:#FFFFFF;stop-opacity:0"/>
			<stop  offset="0.5487" style="stop-color:#D6C9BC;stop-opacity:0.039"/>
			<stop  offset="0.6141" style="stop-color:#B19983;stop-opacity:0.0912"/>
			<stop  offset="0.6803" style="stop-color:#95775B;stop-opacity:0.1442"/>
			<stop  offset="0.746" style="stop-color:#805E40;stop-opacity:0.1968"/>
			<stop  offset="0.8111" style="stop-color:#714E2C;stop-opacity:0.2489"/>
			<stop  offset="0.8755" style="stop-color:#674320;stop-opacity:0.3004"/>
			<stop  offset="0.9389" style="stop-color:#623D19;stop-opacity:0.3511"/>
			<stop  offset="1" style="stop-color:#603A17;stop-opacity:0.4"/>
		</linearGradient>
		<path opacity="0.65" fill="url(#SVGID_2_)" d="M405.314,95.281c-3.049-1.108-6.729-2.263-10.574-3.499L395.1,58.13
			c11.629,3.565,13.631,17.793,13.631,17.793l14.803-1.519c-3.525-20.831-17.062-28.944-28.273-31.193l0.186-17.391l-14.424,1.139
			l0.445,15.78c-11.758,1.064-26.322,6.009-28.152,23.694c-2.277,22.014,14.514,31.752,23.152,35.679
			c1.691,0.769,3.871,1.318,6.299,1.819l-0.566,35.849c-13.693-2.585-13.703-21.347-13.703-21.347l-15.562,1.139
			c-2.238,17.909,4.705,28.842,29.096,31.011l-0.248,15.675l14.424,1.518l-0.369-17.192c17.15-1.796,26.242-10.637,29.975-21.523
			C430.365,115.777,417.84,99.835,405.314,95.281z M367.736,76.682c-1.604-7.386,2.525-15.834,14.168-18.498l0.832,29.438
			C375.057,84.617,368.693,81.084,367.736,76.682z M395.584,138.814l-0.691-32.329c6.385,1.772,12.188,4.729,14.217,11.188
			C412.486,128.417,407.172,135.93,395.584,138.814z"/>
	</g>
</g>
<g>
	<path opacity="0.1" fill="#414042" d="M277.426,223.018c-2.756-2.904-6.133-5.326-10.055-7.211l3.994-12.381
		c0.232-0.723-0.11-1.504-0.799-1.822l-0.199-0.092c-0.123-0.39-0.405-0.726-0.801-0.908l-0.199-0.092
		c-0.123-0.39-0.405-0.726-0.801-0.908l-8.666-4c-0.392-0.182-0.844-0.184-1.238-0.009s-0.694,0.513-0.822,0.925l-4.69,15.066
		c-2.042-0.293-4.177-0.441-6.366-0.441c-5.963,0-11.393,1.107-14.896,2.037c-19.469,5.165-21.764,42.008-21.781,42.379
		c-0.39,8.189,0.561,23.473,11.252,33.759c0.338,0.356,0.691,0.704,1,0.999c1.886,1.994,4.049,3.747,6.442,5.224l-4.302,14.668
		c-0.201,0.687,0.111,1.42,0.745,1.751l0.271,0.142c0.119,0.36,0.373,0.673,0.729,0.858l0.271,0.142
		c0.119,0.36,0.373,0.673,0.73,0.859l7.666,4c0.217,0.112,0.455,0.17,0.693,0.17c0.197,0,0.396-0.039,0.582-0.117
		c0.412-0.174,0.725-0.521,0.854-0.949l5.001-16.554c3.179,0.603,6.609,0.923,10.219,0.953l0.579,0.003
		c12.652,0,21.826-3.534,27.268-10.503c8.271-10.596,4.773-25.086,4.621-25.697c-0.131-0.524-0.529-0.922-1.02-1.071
		c-0.15-0.488-0.531-0.856-1-0.999c-0.207-0.676-0.854-1.117-1.568-1.06l-15,1.333c-0.418,0.037-0.803,0.249-1.059,0.582
		c-0.255,0.334-0.359,0.76-0.285,1.174c0.83,4.703-0.219,9.088-2.953,12.348c-3.137,3.739-8.333,5.834-14.662,5.922l16.057-53.155
		c0.012,0.009,0.023,0.019,0.035,0.028c3.998,5.008,3.835,12.145,3.833,12.214c-0.022,0.692,0.428,1.292,1.063,1.485
		c0.145,0.475,0.52,0.854,1,0.999c0.178,0.581,0.698,1.019,1.336,1.062l15,1c0.404,0.027,0.803-0.111,1.104-0.383
		c0.301-0.272,0.48-0.654,0.494-1.061c0.307-8.455-2.711-15.966-8.676-21.668C278.084,223.658,277.732,223.309,277.426,223.018z
		 M229.104,255.663c0.361-17.328,6.242-25.78,19.55-27.823l-14.691,50.098C229.74,271.507,228.963,262.438,229.104,255.663z"/>
	<g>
		<path fill="#C0AA55" d="M219.357,287.318c1.886,1.994,4.049,3.747,6.442,5.224l-4.302,14.668c-0.201,0.687,0.111,1.42,0.745,1.751
			l0.271,0.142c0.119,0.36,0.373,0.673,0.729,0.858l0.271,0.142c0.119,0.36,0.373,0.673,0.73,0.859l7.666,4
			c0.217,0.112,0.455,0.17,0.693,0.17c0.197,0,0.396-0.039,0.582-0.117c0.412-0.174,0.725-0.521,0.854-0.949l5.001-16.554
			c3.179,0.603,6.609,0.923,10.219,0.953l0.579,0.003c12.652,0,21.826-3.534,27.268-10.503c8.271-10.596,4.773-25.086,4.621-25.697
			c-0.131-0.524-0.529-0.922-1.02-1.071c-0.15-0.488-0.531-0.856-1-0.999c-0.207-0.676-0.854-1.117-1.568-1.06l-15,1.333
			c-0.418,0.037-0.803,0.249-1.059,0.582c-0.255,0.334-0.359,0.76-0.285,1.174c0.83,4.703-0.219,9.088-2.953,12.348
			c-3.137,3.739-8.333,5.834-14.662,5.922l16.057-53.155c0.012,0.009,0.023,0.019,0.035,0.028
			c3.998,5.008,3.835,12.145,3.833,12.214c-0.022,0.692,0.428,1.292,1.063,1.485c0.145,0.475,0.52,0.854,1,0.999
			c0.178,0.581,0.698,1.019,1.336,1.062l15,1c0.404,0.027,0.803-0.111,1.104-0.383c0.301-0.272,0.48-0.654,0.494-1.061
			c0.307-8.455-2.711-15.966-8.676-21.668c-0.342-0.359-0.693-0.709-1-1c-2.756-2.904-6.133-5.326-10.055-7.211l3.994-12.381
			c0.232-0.723-0.11-1.504-0.799-1.822l-0.199-0.092c-0.123-0.39-0.405-0.726-0.801-0.908l-0.199-0.092
			c-0.123-0.39-0.405-0.726-0.801-0.908l-8.666-4c-0.392-0.182-0.844-0.184-1.238-0.009s-0.694,0.513-0.822,0.925l-4.69,15.066
			c-2.042-0.293-4.177-0.441-6.366-0.441c-5.963,0-11.393,1.107-14.896,2.037c-19.469,5.165-21.764,42.008-21.781,42.379
			c-0.39,8.189,0.561,23.473,11.252,33.759C218.695,286.676,219.049,287.023,219.357,287.318z M226.104,252.663
			c0.361-17.328,6.242-25.78,19.55-27.823l-14.691,50.098C226.74,268.507,225.963,259.438,226.104,252.663z"/>
		<path opacity="0.75" fill="#F6EB16" d="M265.271,263.965c2,11.334-6,20.667-21,20c-0.912-0.04-1.785-0.135-2.623-0.275
			l17.739-58.729c8.6,4.861,8.216,16.671,8.216,16.671l15,1c0.52-14.353-8.926-23.774-20.41-27.96l4.744-14.707l-8.666-4
			l-5.076,16.309c-8.098-1.443-16.213-0.156-21.924,1.358c-16.334,4.333-20.334,34-20.668,41
			c-0.266,5.583-0.742,28.979,19.205,38.391l-4.871,16.609l7.666,4L238,295.768c3.34,0.736,7.078,1.162,11.271,1.197
			c39.666,0.334,31-34.333,31-34.333L265.271,263.965z M224.604,252.632c0.334-16,5-28.333,24.334-29.667
			c0.492-0.033,0.964-0.045,1.431-0.051l-16.776,57.206C226.814,274.627,224.368,263.967,224.604,252.632z"/>
		<path opacity="0.3" fill="#55463E" d="M266.271,264.965c2,11.334-6,20.667-21,20c-0.912-0.04-1.785-0.135-2.623-0.275
			l17.739-58.729c8.6,4.861,8.216,16.671,8.216,16.671l15,1c0.52-14.353-8.926-23.774-20.41-27.96l4.744-14.707l-8.666-4
			l-5.076,16.309c-8.098-1.443-16.213-0.156-21.924,1.358c-16.334,4.333-20.334,34-20.668,41
			c-0.266,5.583-0.742,28.979,19.205,38.391l-4.871,16.609l7.666,4L239,296.768c3.34,0.736,7.078,1.162,11.271,1.197
			c39.666,0.334,31-34.333,31-34.333L266.271,264.965z M225.604,253.632c0.334-16,5-28.333,24.334-29.667
			c0.492-0.033,0.964-0.045,1.431-0.051l-16.776,57.206C227.814,275.627,225.368,264.967,225.604,253.632z"/>
		<path opacity="0.75" fill="#FEE31C" d="M264.271,262.965c2,11.334-6,20.667-21,20c-0.912-0.04-1.785-0.135-2.623-0.275
			l17.739-58.729c8.6,4.861,8.216,16.671,8.216,16.671l15,1c0.52-14.353-8.926-23.774-20.41-27.96l4.744-14.707l-8.666-4
			l-5.076,16.309c-8.098-1.443-16.213-0.156-21.924,1.358c-16.334,4.333-20.334,34-20.668,41
			c-0.266,5.583-0.742,28.979,19.205,38.391l-4.871,16.609l7.666,4L237,294.768c3.34,0.736,7.078,1.162,11.271,1.197
			c39.666,0.334,31-34.333,31-34.333L264.271,262.965z M223.604,251.632c0.334-16,5-28.333,24.334-29.667
			c0.492-0.033,0.964-0.045,1.431-0.051l-16.776,57.206C225.814,273.627,223.368,262.967,223.604,251.632z"/>
		<linearGradient id="SVGID_3_" gradientUnits="userSpaceOnUse" x1="208.8896" y1="293.583" x2="284.7231" y2="217.7496">
			<stop  offset="0" style="stop-color:#603A17;stop-opacity:0.4"/>
			<stop  offset="0.0433" style="stop-color:#643F1C;stop-opacity:0.3653"/>
			<stop  offset="0.114" style="stop-color:#6F4B2A;stop-opacity:0.3088"/>
			<stop  offset="0.2033" style="stop-color:#846245;stop-opacity:0.2373"/>
			<stop  offset="0.3077" style="stop-color:#A4886F;stop-opacity:0.1538"/>
			<stop  offset="0.4234" style="stop-color:#D2C4B6;stop-opacity:0.0613"/>
			<stop  offset="0.5" style="stop-color:#FFFFFF;stop-opacity:0"/>
			<stop  offset="0.5487" style="stop-color:#D6C9BC;stop-opacity:0.039"/>
			<stop  offset="0.6141" style="stop-color:#B19983;stop-opacity:0.0912"/>
			<stop  offset="0.6803" style="stop-color:#95775B;stop-opacity:0.1442"/>
			<stop  offset="0.746" style="stop-color:#805E40;stop-opacity:0.1968"/>
			<stop  offset="0.8111" style="stop-color:#714E2C;stop-opacity:0.2489"/>
			<stop  offset="0.8755" style="stop-color:#674320;stop-opacity:0.3004"/>
			<stop  offset="0.9389" style="stop-color:#623D19;stop-opacity:0.3511"/>
			<stop  offset="1" style="stop-color:#603A17;stop-opacity:0.4"/>
		</linearGradient>
		<path opacity="0.65" fill="url(#SVGID_3_)" d="M265.271,263.965c2,11.334-6,20.667-21,20c-0.912-0.04-1.785-0.135-2.623-0.275
			l17.739-58.729c8.6,4.861,8.216,16.671,8.216,16.671l15,1c0.52-14.353-8.926-23.774-20.41-27.96l4.744-14.707l-8.666-4
			l-5.076,16.309c-8.098-1.443-16.213-0.156-21.924,1.358c-16.334,4.333-20.334,34-20.668,41
			c-0.266,5.583-0.742,28.979,19.205,38.391l-4.871,16.609l7.666,4L238,295.768c3.34,0.736,7.078,1.162,11.271,1.197
			c39.666,0.334,31-34.333,31-34.333L265.271,263.965z M224.604,252.632c0.334-16,5-28.333,24.334-29.667
			c0.492-0.033,0.964-0.045,1.431-0.051l-16.776,57.206C226.814,274.627,224.368,263.967,224.604,252.632z"/>
	</g>
</g>
<g>
	<path opacity="0.1" fill="#414042" d="M284.516,134.579c-0.105-0.115-0.225-0.216-0.352-0.298l-0.648-0.702
		c-0.105-0.115-0.225-0.216-0.352-0.298l-0.648-0.702c-0.283-0.308-0.684-0.482-1.103-0.482c-0.001,0-0.003,0-0.004,0
		c-0.42,0.001-0.82,0.178-1.104,0.489c-6.456,7.071-15.834,8.061-27.283,2.974c-4.403-1.958-9.187-2.852-14.151-2.658
		c6.008-7.405,8.385-15.742,7.08-24.851l17.183-0.621c0.621-0.022,1.163-0.424,1.365-1.011l3.667-10.667
		c0.159-0.466,0.081-0.98-0.211-1.376c-0.194-0.265-0.467-0.454-0.772-0.547c-0.049-0.161-0.125-0.314-0.228-0.453
		c-0.194-0.264-0.467-0.454-0.772-0.547c-0.049-0.161-0.125-0.314-0.228-0.453c-0.292-0.397-0.757-0.617-1.251-0.611l-24.072,0.691
		c-2.078-4.051-4.408-7.702-6.306-10.674c-1.779-2.787-3.315-5.193-3.828-6.675c-1.245-3.596-0.851-7.145,1.111-9.994
		c2.257-3.279,7.649-7.274,20.519-7.683c4.79-0.148,8.7,1.066,11.753,3.616c5.417,6.493,5.367,16.434,5.366,16.534
		c-0.005,0.426,0.172,0.835,0.486,1.124c0.167,0.153,0.365,0.266,0.578,0.33c0.078,0.255,0.223,0.487,0.422,0.67
		c0.168,0.153,0.366,0.265,0.578,0.33c0.078,0.255,0.223,0.487,0.422,0.67c0.314,0.288,0.736,0.429,1.16,0.387l17.001-1.667
		c0.719-0.07,1.285-0.644,1.348-1.364c0.062-0.72,1.387-17.756-10.16-28.75c-0.339-0.357-0.691-0.708-0.999-0.999
		c-8.034-8.489-20.751-11.613-37.55-9.198c-14.275,2.054-23.671,7.193-27.923,15.276c-6.124,11.638-0.408,27.224,5.059,38.67
		l-12.965,0.372c-0.759,0.022-1.382,0.607-1.451,1.364l-1,11c-0.039,0.429,0.108,0.854,0.405,1.167
		c0.181,0.191,0.407,0.329,0.653,0.404c0.067,0.22,0.185,0.425,0.347,0.596c0.181,0.191,0.406,0.329,0.653,0.404
		c0.067,0.22,0.185,0.425,0.347,0.596c0.295,0.313,0.717,0.484,1.143,0.468l19.395-0.701c3.443,14.679-19.688,29.787-19.928,29.941
		c-0.63,0.406-0.864,1.216-0.547,1.896l7,15c0.18,0.384,0.51,0.665,0.902,0.79l0.098,0.209c0.179,0.385,0.51,0.666,0.902,0.791
		l0.098,0.209c0.239,0.513,0.749,0.842,1.314,0.86c0.016,0,0.031,0.001,0.047,0.001c0.548,0,1.057-0.304,1.32-0.787
		c0.148-0.271,3.781-6.661,16.268-6.661c4.955,0,10.658,1.025,16.951,3.049c6.7,2.153,13.262,3.245,19.501,3.245
		c16.194,0,24.899-7.222,25.261-7.53c0.312-0.264,0.504-0.645,0.527-1.053c0.025-0.408-0.117-0.809-0.395-1.109L284.516,134.579z"/>
	<g>
		<path fill="#C0AA55" d="M202.312,104.365c0.067,0.22,0.185,0.425,0.347,0.596c0.181,0.191,0.406,0.329,0.653,0.404
			c0.067,0.22,0.185,0.425,0.347,0.596c0.295,0.313,0.717,0.484,1.143,0.468l19.395-0.701c3.443,14.679-19.688,29.787-19.928,29.941
			c-0.63,0.406-0.864,1.216-0.547,1.896l7,15c0.18,0.384,0.51,0.665,0.902,0.79l0.098,0.209c0.179,0.385,0.51,0.666,0.902,0.791
			l0.098,0.209c0.239,0.513,0.749,0.842,1.314,0.86c0.016,0,0.031,0.001,0.047,0.001c0.548,0,1.057-0.304,1.32-0.787
			c0.148-0.271,3.781-6.661,16.268-6.661c4.955,0,10.658,1.025,16.951,3.049c6.7,2.153,13.262,3.245,19.501,3.245
			c16.194,0,24.899-7.222,25.261-7.53c0.312-0.264,0.504-0.645,0.527-1.053c0.025-0.408-0.117-0.809-0.395-1.109l-12-12.999
			c-0.105-0.115-0.225-0.216-0.352-0.298l-0.648-0.702c-0.105-0.115-0.225-0.216-0.352-0.298l-0.648-0.702
			c-0.283-0.308-0.684-0.482-1.103-0.482c-0.001,0-0.003,0-0.004,0c-0.42,0.001-0.82,0.178-1.104,0.489
			c-6.456,7.07-15.834,8.062-27.283,2.974c-4.403-1.958-9.187-2.852-14.151-2.658c6.008-7.405,8.385-15.742,7.08-24.851
			l17.183-0.621c0.621-0.022,1.163-0.424,1.365-1.011l3.667-10.667c0.159-0.466,0.081-0.98-0.211-1.376
			c-0.194-0.265-0.467-0.454-0.772-0.547c-0.049-0.161-0.125-0.314-0.228-0.453c-0.194-0.264-0.467-0.454-0.772-0.547
			c-0.049-0.161-0.125-0.314-0.228-0.453c-0.292-0.397-0.757-0.617-1.251-0.611l-24.072,0.691
			c-2.078-4.051-4.408-7.702-6.306-10.674c-1.779-2.787-3.315-5.193-3.828-6.675c-1.245-3.596-0.851-7.145,1.111-9.994
			c2.257-3.279,7.649-7.274,20.519-7.683c4.79-0.148,8.7,1.066,11.753,3.616c5.417,6.493,5.367,16.434,5.366,16.534
			c-0.005,0.426,0.172,0.835,0.486,1.124c0.167,0.153,0.365,0.266,0.578,0.33c0.078,0.255,0.223,0.487,0.422,0.67
			c0.168,0.153,0.366,0.265,0.578,0.33c0.078,0.255,0.223,0.487,0.422,0.67c0.314,0.288,0.736,0.429,1.16,0.387l17.001-1.667
			c0.719-0.07,1.285-0.644,1.348-1.364c0.062-0.72,1.387-17.756-10.16-28.75c-0.339-0.357-0.691-0.708-0.999-0.999
			c-8.034-8.489-20.751-11.613-37.55-9.198c-14.275,2.054-23.671,7.193-27.923,15.276c-6.124,11.638-0.408,27.224,5.059,38.67
			l-12.965,0.372c-0.759,0.022-1.382,0.607-1.451,1.364l-1,11c-0.039,0.429,0.108,0.854,0.405,1.167
			C201.839,104.152,202.065,104.29,202.312,104.365z"/>
		<path opacity="0.75" fill="#F6EB16" d="M280.414,132.597c-7.001,7.667-17.001,8.667-29.001,3.333c-12-5.333-23-0.667-23-0.667
			c12.532-10.444,14.707-21.585,12.776-31.651l18.891-0.683l3.667-10.667l-26.054,0.749c-4.215-9.26-10.328-16.703-11.613-20.415
			c-3-8.667,2-19,23-19.667s20.667,23.667,20.667,23.667l17.001-1.667c0,0,3.666-42.333-45.001-35.333
			c-40.376,5.808-30.275,34.559-20.714,53.894l-15.286,0.439l-1,11l21.761-0.787c8.325,16.937-19.428,34.786-19.428,34.786l7,15
			c0,0,7-13.334,35-4.334c28,9.001,43.334-4,43.334-4L280.414,132.597z"/>
		<path opacity="0.3" fill="#55463E" d="M281.414,133.597c-7.001,7.667-17.001,8.667-29.001,3.333c-12-5.333-23-0.667-23-0.667
			c12.532-10.444,14.707-21.585,12.776-31.651l18.891-0.683l3.667-10.667l-26.054,0.749c-4.215-9.26-10.328-16.703-11.613-20.415
			c-3-8.667,2-19,23-19.667s20.667,23.667,20.667,23.667l17.001-1.667c0,0,3.666-42.333-45.001-35.333
			c-40.376,5.808-30.275,34.559-20.714,53.894l-15.286,0.439l-1,11l21.761-0.787c8.325,16.937-19.428,34.787-19.428,34.787l7,15
			c0,0,7-13.334,35-4.334c28,9.001,43.334-4,43.334-4L281.414,133.597z"/>
		<path opacity="0.75" fill="#FEE31C" d="M279.414,131.597c-7.001,7.667-17.001,8.667-29.001,3.333c-12-5.333-23-0.667-23-0.667
			c12.532-10.444,14.707-21.585,12.776-31.651l18.891-0.683l3.667-10.667l-26.054,0.749c-4.215-9.26-10.328-16.703-11.613-20.415
			c-3-8.667,2-19,23-19.667s20.667,23.667,20.667,23.667l17.001-1.667c0,0,3.666-42.333-45.001-35.333
			c-40.376,5.808-30.275,34.559-20.714,53.894l-15.286,0.439l-1,11l21.761-0.787c8.325,16.937-19.428,34.786-19.428,34.786l7,15
			c0,0,7-13.334,35-4.334c28,9.001,43.334-4,43.334-4L279.414,131.597z"/>
		<linearGradient id="SVGID_4_" gradientUnits="userSpaceOnUse" x1="206.5146" y1="146.3643" x2="291.2756" y2="61.6033">
			<stop  offset="0" style="stop-color:#603A17;stop-opacity:0.4"/>
			<stop  offset="0.0433" style="stop-color:#643F1C;stop-opacity:0.3653"/>
			<stop  offset="0.114" style="stop-color:#6F4B2A;stop-opacity:0.3088"/>
			<stop  offset="0.2033" style="stop-color:#846245;stop-opacity:0.2373"/>
			<stop  offset="0.3077" style="stop-color:#A4886F;stop-opacity:0.1538"/>
			<stop  offset="0.4234" style="stop-color:#D2C4B6;stop-opacity:0.0613"/>
			<stop  offset="0.5" style="stop-color:#FFFFFF;stop-opacity:0"/>
			<stop  offset="0.5487" style="stop-color:#D6C9BC;stop-opacity:0.039"/>
			<stop  offset="0.6141" style="stop-color:#B19983;stop-opacity:0.0912"/>
			<stop  offset="0.6803" style="stop-color:#95775B;stop-opacity:0.1442"/>
			<stop  offset="0.746" style="stop-color:#805E40;stop-opacity:0.1968"/>
			<stop  offset="0.8111" style="stop-color:#714E2C;stop-opacity:0.2489"/>
			<stop  offset="0.8755" style="stop-color:#674320;stop-opacity:0.3004"/>
			<stop  offset="0.9389" style="stop-color:#623D19;stop-opacity:0.3511"/>
			<stop  offset="1" style="stop-color:#603A17;stop-opacity:0.4"/>
		</linearGradient>
		<path opacity="0.65" fill="url(#SVGID_4_)" d="M280.414,132.597c-7.001,7.667-17.001,8.667-29.001,3.333
			c-12-5.333-23-0.667-23-0.667c12.532-10.444,14.707-21.585,12.776-31.651l18.891-0.683l3.667-10.667l-26.054,0.749
			c-4.215-9.26-10.328-16.703-11.613-20.415c-3-8.667,2-19,23-19.667s20.667,23.667,20.667,23.667l17.001-1.667
			c0,0,3.666-42.333-45.001-35.333c-40.376,5.808-30.275,34.559-20.714,53.894l-15.286,0.439l-1,11l21.761-0.787
			c8.325,16.937-19.428,34.786-19.428,34.786l7,15c0,0,7-13.334,35-4.334c28,9.001,43.334-4,43.334-4L280.414,132.597z"/>
	</g>
</g>
<g>
	<path opacity="0.1" fill="#414042" d="M93.143,94.361L67.187,93.82c-0.453,0.01-0.905,0.196-1.197,0.557s-0.4,0.836-0.294,1.287
		l2,8.5c0.125,0.531,0.523,0.939,1.024,1.092c0.147,0.486,0.528,0.856,1,1c0.19,0.629,0.771,1.064,1.436,1.064h26.794l-0.24,6.408
		l-28.532,0.592c-0.007,0-0.015,0-0.022,0c-0.759,0-1.4,0.568-1.489,1.325l-1,8.5c-0.05,0.423,0.083,0.848,0.365,1.168
		c0.186,0.21,0.425,0.362,0.689,0.442c0.062,0.204,0.167,0.395,0.311,0.558c0.186,0.21,0.425,0.362,0.689,0.442
		c0.062,0.204,0.167,0.395,0.311,0.558c0.283,0.319,0.688,0.504,1.114,0.507l27.068-0.812l-1.057,28.256
		c-0.026,0.693,0.424,1.299,1.063,1.492c0.144,0.475,0.518,0.854,1,1c0.174,0.574,0.685,1.008,1.316,1.059l12.5,1
		c0.04,0.004,0.08,0.006,0.12,0.006c0.375,0,0.739-0.141,1.018-0.398c0.308-0.283,0.482-0.684,0.482-1.102v-31.197l28.489,0.197
		c0.004,0,0.007,0,0.011,0c0.429,0,0.836-0.183,1.121-0.503c0.287-0.323,0.421-0.755,0.367-1.184l-1-8
		c-0.075-0.6-0.498-1.081-1.053-1.249c-0.146-0.481-0.524-0.856-1-1c-0.187-0.615-0.752-1.055-1.414-1.064l-25.521-0.364v-6.636h28
		c0.416,0,0.814-0.173,1.098-0.478c0.284-0.305,0.428-0.714,0.398-1.129l-0.5-7c-0.045-0.634-0.479-1.153-1.061-1.329
		c-0.146-0.479-0.523-0.855-1-1c-0.185-0.609-0.743-1.051-1.404-1.064l-20.112-0.419l32.359-52.797
		c0.262-0.428,0.293-0.959,0.082-1.415c-0.182-0.391-0.52-0.682-0.926-0.805c-0.02-0.066-0.045-0.132-0.074-0.196
		c-0.182-0.391-0.52-0.681-0.925-0.804c-0.021-0.066-0.045-0.132-0.075-0.196c-0.211-0.455-0.636-0.775-1.132-0.851l-13-2
		c-0.606-0.093-1.207,0.191-1.519,0.718l-28.856,48.725L75.933,38.034c-0.182-0.296-0.456-0.512-0.77-0.625l-0.23-0.374
		c-0.182-0.296-0.456-0.513-0.77-0.625l-0.23-0.375c-0.316-0.514-0.91-0.788-1.506-0.697l-13,2c-0.5,0.077-0.928,0.401-1.138,0.862
		s-0.172,0.997,0.1,1.424L93.143,94.361z"/>
	<g>
		<path fill="#C0AA55" d="M147.59,36.885c-0.021-0.066-0.045-0.132-0.075-0.196c-0.181-0.391-0.52-0.681-0.925-0.804
			c-0.021-0.066-0.045-0.132-0.075-0.196c-0.211-0.455-0.636-0.775-1.132-0.851l-13-2c-0.606-0.093-1.207,0.191-1.519,0.718
			l-28.856,48.725L72.933,35.034c-0.182-0.296-0.456-0.512-0.77-0.625l-0.23-0.374c-0.182-0.296-0.456-0.513-0.77-0.625l-0.23-0.375
			c-0.316-0.514-0.91-0.788-1.506-0.697l-13,2c-0.5,0.077-0.928,0.401-1.138,0.862s-0.172,0.997,0.1,1.424l34.754,54.737
			L64.187,90.82c-0.453,0.01-0.905,0.196-1.197,0.557s-0.4,0.836-0.294,1.287l2,8.5c0.125,0.531,0.523,0.939,1.024,1.092
			c0.147,0.486,0.528,0.856,1,1c0.19,0.629,0.771,1.064,1.436,1.064h26.794l-0.24,6.408l-28.532,0.592c-0.007,0-0.015,0-0.022,0
			c-0.759,0-1.4,0.568-1.489,1.325l-1,8.5c-0.05,0.423,0.083,0.848,0.365,1.168c0.186,0.21,0.425,0.362,0.689,0.442
			c0.062,0.204,0.167,0.395,0.311,0.558c0.186,0.21,0.425,0.362,0.689,0.442c0.062,0.204,0.167,0.395,0.311,0.558
			c0.283,0.319,0.688,0.504,1.114,0.507l27.068-0.812l-1.057,28.256c-0.026,0.693,0.424,1.299,1.063,1.492
			c0.144,0.475,0.518,0.854,1,1c0.174,0.574,0.685,1.008,1.316,1.059l12.5,1c0.04,0.004,0.08,0.006,0.12,0.006
			c0.375,0,0.739-0.141,1.018-0.398c0.308-0.283,0.482-0.684,0.482-1.102v-31.197l28.489,0.197c0.004,0,0.007,0,0.011,0
			c0.429,0,0.836-0.183,1.121-0.503c0.287-0.323,0.421-0.755,0.367-1.184l-1-8c-0.075-0.6-0.498-1.081-1.053-1.249
			c-0.146-0.481-0.524-0.856-1-1c-0.187-0.615-0.752-1.055-1.414-1.064l-25.521-0.364v-6.636h28c0.416,0,0.814-0.173,1.098-0.478
			c0.284-0.305,0.428-0.714,0.398-1.129l-0.5-7c-0.045-0.634-0.479-1.153-1.061-1.329c-0.146-0.479-0.523-0.855-1-1
			c-0.185-0.609-0.743-1.051-1.404-1.064l-20.112-0.419l32.36-52.797c0.262-0.428,0.293-0.959,0.081-1.415
			C148.334,37.299,147.996,37.008,147.59,36.885z"/>
		<polygon opacity="0.75" fill="#F6EB16" points="138.155,114.82 109.155,114.406 109.155,102.82 138.655,102.82 138.155,95.82 
			112.244,95.28 147.155,38.32 134.155,36.32 103.655,87.82 71.655,35.82 58.655,37.82 94.909,94.919 66.155,94.32 68.155,102.82 
			98.581,102.82 98.153,114.249 68.155,114.82 67.155,123.32 97.844,122.533 96.655,154.32 109.155,155.32 109.155,122.612 
			139.155,122.82 		"/>
		<polygon opacity="0.3" fill="#55463E" points="139.155,115.82 110.155,115.406 110.155,103.82 139.655,103.82 139.155,96.82 
			113.244,96.28 148.155,39.32 135.155,37.32 104.655,88.82 72.655,36.82 59.655,38.82 95.909,95.919 67.155,95.32 69.155,103.82 
			99.581,103.82 99.153,115.249 69.155,115.82 68.155,124.32 98.844,123.533 97.655,155.32 110.155,156.32 110.155,123.612 
			140.155,123.82 		"/>
		<polygon opacity="0.75" fill="#FEE31C" points="137.155,113.82 108.155,113.406 108.155,101.82 137.655,101.82 137.155,94.82 
			111.244,94.28 146.155,37.32 133.155,35.32 102.655,86.82 70.655,34.82 57.655,36.82 93.909,93.919 65.155,93.32 67.155,101.82 
			97.581,101.82 97.153,113.249 67.155,113.82 66.155,122.32 96.844,121.533 95.655,153.32 108.155,154.32 108.155,121.612 
			138.155,121.82 		"/>
		<linearGradient id="SVGID_5_" gradientUnits="userSpaceOnUse" x1="61.4062" y1="119.0713" x2="144.656" y2="35.8215">
			<stop  offset="0" style="stop-color:#603A17;stop-opacity:0.4"/>
			<stop  offset="0.0433" style="stop-color:#643F1C;stop-opacity:0.3653"/>
			<stop  offset="0.114" style="stop-color:#6F4B2A;stop-opacity:0.3088"/>
			<stop  offset="0.2033" style="stop-color:#846245;stop-opacity:0.2373"/>
			<stop  offset="0.3077" style="stop-color:#A4886F;stop-opacity:0.1538"/>
			<stop  offset="0.4234" style="stop-color:#D2C4B6;stop-opacity:0.0613"/>
			<stop  offset="0.5" style="stop-color:#FFFFFF;stop-opacity:0"/>
			<stop  offset="0.5487" style="stop-color:#D6C9BC;stop-opacity:0.039"/>
			<stop  offset="0.6141" style="stop-color:#B19983;stop-opacity:0.0912"/>
			<stop  offset="0.6803" style="stop-color:#95775B;stop-opacity:0.1442"/>
			<stop  offset="0.746" style="stop-color:#805E40;stop-opacity:0.1968"/>
			<stop  offset="0.8111" style="stop-color:#714E2C;stop-opacity:0.2489"/>
			<stop  offset="0.8755" style="stop-color:#674320;stop-opacity:0.3004"/>
			<stop  offset="0.9389" style="stop-color:#623D19;stop-opacity:0.3511"/>
			<stop  offset="1" style="stop-color:#603A17;stop-opacity:0.4"/>
		</linearGradient>
		<polygon opacity="0.65" fill="url(#SVGID_5_)" points="138.155,114.82 109.155,114.406 109.155,102.82 138.655,102.82 
			138.155,95.82 112.244,95.28 147.155,38.32 134.155,36.32 103.655,87.82 71.655,35.82 58.655,37.82 94.909,94.919 66.155,94.32 
			68.155,102.82 98.581,102.82 98.153,114.249 68.155,114.82 67.155,123.32 97.844,122.533 96.655,154.32 109.155,155.32 
			109.155,122.612 139.155,122.82 		"/>
	</g>
</g>
<g>
	<path opacity="0.1" fill="#414042" d="M447.27,224.029c-0.145-0.479-0.521-0.855-1-1c-0.188-0.617-0.76-1.064-1.436-1.064h-7.268
		c-1.025-5.759-3.891-11.09-8.107-15.08c-0.344-0.361-0.695-0.715-1-1c-5.248-5.537-12.336-8.586-19.959-8.586h-60
		c-0.827,0-1.498,0.668-1.5,1.495l-0.067,23.171H338.5c-0.828,0-1.5,0.671-1.5,1.5v2.666c0,0.678,0.448,1.25,1.064,1.436
		c0.145,0.479,0.521,0.855,1,1c0.187,0.617,0.759,1.064,1.436,1.064h6.411l-0.019,6.334H339.5c-0.828,0-1.5,0.672-1.5,1.5v2.666
		c0,0.678,0.448,1.25,1.064,1.436c0.145,0.479,0.521,0.855,1,1c0.187,0.617,0.759,1.064,1.436,1.064h5.372l0.059,71.428
		c-0.001,0.403,0.16,0.79,0.447,1.073c0.175,0.172,1.557,1.559,1.736,1.736c0.281,0.276,0.659,0.431,1.053,0.431
		c0.009,0,0.019,0,0.028,0l18-0.334c0.813-0.016,1.467-0.678,1.472-1.492l0.27-49.174H410.5c13.881,0,25.355-10.08,27.229-23.668
		h8.105c0.828,0,1.5-0.672,1.5-1.5v-2.666c0-0.678-0.449-1.25-1.064-1.436c-0.145-0.479-0.521-0.855-1-1
		c-0.188-0.617-0.76-1.064-1.436-1.064H438v-6.334h8.834c0.828,0,1.5-0.672,1.5-1.5v-2.666
		C448.334,224.787,447.885,224.215,447.27,224.029z M406.5,215.631c3.066,0,6.062,1.063,8.453,2.996
		c0.837,1.03,1.507,2.146,2.003,3.338H370v-6.334H406.5z M418,229.631v6.168c0,0.055,0,0.109-0.001,0.166H370v-6.334H418z
		 M404.5,249.299H370v-5.668h45.479C412.974,247.135,408.884,249.299,404.5,249.299z"/>
	<g>
		<path fill="#C0AA55" d="M444.27,221.029c-0.145-0.479-0.521-0.855-1-1c-0.188-0.617-0.76-1.064-1.436-1.064h-7.268
			c-1.025-5.759-3.891-11.09-8.107-15.08c-0.344-0.361-0.695-0.715-1-1c-5.248-5.537-12.336-8.586-19.959-8.586h-60
			c-0.827,0-1.498,0.668-1.5,1.495l-0.067,23.171H335.5c-0.828,0-1.5,0.671-1.5,1.5v2.666c0,0.678,0.448,1.25,1.064,1.436
			c0.145,0.479,0.521,0.855,1,1c0.187,0.617,0.759,1.064,1.436,1.064h6.411l-0.019,6.334H336.5c-0.828,0-1.5,0.672-1.5,1.5v2.666
			c0,0.678,0.448,1.25,1.064,1.436c0.145,0.479,0.521,0.855,1,1c0.187,0.617,0.759,1.064,1.436,1.064h5.372l0.059,71.428
			c-0.001,0.403,0.16,0.79,0.447,1.073c0.175,0.172,1.557,1.559,1.736,1.736c0.281,0.276,0.659,0.431,1.053,0.431
			c0.009,0,0.019,0,0.028,0l18-0.334c0.813-0.016,1.467-0.678,1.472-1.492l0.27-49.174H407.5c13.881,0,25.355-10.08,27.229-23.668
			h8.105c0.828,0,1.5-0.672,1.5-1.5v-2.666c0-0.678-0.449-1.25-1.064-1.436c-0.145-0.479-0.521-0.855-1-1
			c-0.188-0.617-0.76-1.064-1.436-1.064H435v-6.334h8.834c0.828,0,1.5-0.672,1.5-1.5v-2.666
			C445.334,221.787,444.885,221.215,444.27,221.029z M367,212.631h36.5c3.066,0,6.062,1.063,8.453,2.996
			c0.837,1.03,1.507,2.146,2.003,3.338H367V212.631z M401.5,246.299H367v-5.668h45.479
			C409.974,244.135,405.884,246.299,401.5,246.299z M415,232.799c0,0.055,0,0.109-0.001,0.166H367v-6.334h48V232.799z"/>
		<path opacity="0.75" fill="#F6EB16" d="M443.834,225.131v-2.666h-10.369c-0.693-13.74-12.053-24.666-25.965-24.666h-60
			l-0.071,24.666H337.5v2.666h9.922l-0.033,11.334H338.5v2.666h8.882l-0.215,74.668l18-0.334l0.277-50.666H407.5
			c13.572,0,24.711-10.402,25.891-23.668h9.443v-2.666H433.5v-11.334H443.834z M365.5,211.131h38
			c7.017,0,12.892,4.826,14.529,11.334H365.5V211.131z M403.5,249.799h-38v-10.668h52.358
			C415.999,245.303,410.276,249.799,403.5,249.799z M418.5,226.131v8.668c0,0.562-0.037,1.117-0.098,1.666H365.5v-11.334h52.949
			C418.472,225.463,418.5,225.793,418.5,226.131z"/>
		<path opacity="0.3" fill="#55463E" d="M444.834,226.131v-2.666h-10.369c-0.693-13.74-12.053-24.666-25.965-24.666h-60
			l-0.071,24.666H338.5v2.666h9.922l-0.033,11.334H339.5v2.666h8.882l-0.215,74.668l18-0.334l0.277-50.666H408.5
			c13.572,0,24.711-10.402,25.891-23.668h9.443v-2.666H434.5v-11.334H444.834z M366.5,212.131h38
			c7.017,0,12.892,4.826,14.529,11.334H366.5V212.131z M404.5,250.799h-38v-10.668h52.358
			C416.999,246.303,411.276,250.799,404.5,250.799z M419.5,227.131v8.668c0,0.562-0.037,1.117-0.098,1.666H366.5v-11.334h52.949
			C419.472,226.463,419.5,226.793,419.5,227.131z"/>
		<path opacity="0.75" fill="#FEE31C" d="M442.834,224.131v-2.666h-10.369c-0.693-13.74-12.053-24.666-25.965-24.666h-60
			l-0.071,24.666H336.5v2.666h9.922l-0.033,11.334H337.5v2.666h8.882l-0.215,74.668l18-0.334l0.277-50.666H406.5
			c13.573,0,24.711-10.402,25.891-23.668h9.443v-2.666H432.5v-11.334H442.834z M364.5,210.131h38
			c7.017,0,12.892,4.826,14.529,11.334H364.5V210.131z M402.5,248.799h-38v-10.668h52.358
			C414.999,244.303,409.276,248.799,402.5,248.799z M417.5,225.131v8.668c0,0.562-0.037,1.117-0.098,1.666H364.5v-11.334h52.949
			C417.472,224.463,417.5,224.793,417.5,225.131z"/>
		<linearGradient id="SVGID_6_" gradientUnits="userSpaceOnUse" x1="323.5" y1="290.1328" x2="417.5007" y2="196.1321">
			<stop  offset="0" style="stop-color:#603A17;stop-opacity:0.4"/>
			<stop  offset="0.0433" style="stop-color:#643F1C;stop-opacity:0.3653"/>
			<stop  offset="0.114" style="stop-color:#6F4B2A;stop-opacity:0.3088"/>
			<stop  offset="0.2033" style="stop-color:#846245;stop-opacity:0.2373"/>
			<stop  offset="0.3077" style="stop-color:#A4886F;stop-opacity:0.1538"/>
			<stop  offset="0.4234" style="stop-color:#D2C4B6;stop-opacity:0.0613"/>
			<stop  offset="0.5" style="stop-color:#FFFFFF;stop-opacity:0"/>
			<stop  offset="0.5487" style="stop-color:#D6C9BC;stop-opacity:0.039"/>
			<stop  offset="0.6141" style="stop-color:#B19983;stop-opacity:0.0912"/>
			<stop  offset="0.6803" style="stop-color:#95775B;stop-opacity:0.1442"/>
			<stop  offset="0.746" style="stop-color:#805E40;stop-opacity:0.1968"/>
			<stop  offset="0.8111" style="stop-color:#714E2C;stop-opacity:0.2489"/>
			<stop  offset="0.8755" style="stop-color:#674320;stop-opacity:0.3004"/>
			<stop  offset="0.9389" style="stop-color:#623D19;stop-opacity:0.3511"/>
			<stop  offset="1" style="stop-color:#603A17;stop-opacity:0.4"/>
		</linearGradient>
		<path opacity="0.65" fill="url(#SVGID_6_)" d="M443.834,225.131v-2.666h-10.369c-0.693-13.74-12.053-24.666-25.965-24.666h-60
			l-0.071,24.666H337.5v2.666h9.922l-0.033,11.334H338.5v2.666h8.882l-0.215,74.668l18-0.334l0.277-50.666H407.5
			c13.572,0,24.711-10.402,25.891-23.668h9.443v-2.666H433.5v-11.334H443.834z M365.5,211.131h38
			c7.017,0,12.892,4.826,14.529,11.334H365.5V211.131z M403.5,249.799h-38v-10.668h52.358
			C415.999,245.303,410.276,249.799,403.5,249.799z M418.5,226.131v8.668c0,0.562-0.037,1.117-0.098,1.666H365.5v-11.334h52.949
			C418.472,225.463,418.5,225.793,418.5,226.131z"/>
	</g>
</g>
<g>
	<path opacity="0.1" fill="#414042" d="M160.902,217.445c-0.213-0.23-0.539-0.568-1-1c-2.283-2.48-14.684-14.199-45.149-14.508
		l-0.527-0.003c-27.374,0-47.448,21.231-52.863,41.624l-13.63,0.045c-0.776,0.004-1.422,0.598-1.489,1.371l-0.666,7.666
		c-0.037,0.418,0.103,0.83,0.385,1.141c0.184,0.201,0.417,0.348,0.674,0.426c0.064,0.211,0.175,0.406,0.326,0.574
		c0.184,0.201,0.417,0.348,0.674,0.426c0.064,0.211,0.175,0.406,0.326,0.574c0.282,0.309,0.68,0.486,1.099,0.49l10.789,0.074
		c0.013,0.414,0.032,0.809,0.058,1.193c0.088,1.293,0.204,2.607,0.345,3.926l-13.531,0.139c-0.421,0.006-0.821,0.186-1.102,0.5
		c-0.281,0.312-0.417,0.73-0.375,1.15l0.667,6.666c0.062,0.617,0.491,1.115,1.057,1.287c0.146,0.48,0.524,0.855,1,1
		c0.188,0.619,0.761,1.061,1.43,1.064l12.955,0.049c2.569,9.934,7.05,18.049,13.295,24.098c0.338,0.354,0.685,0.697,1.001,1.002
		c9.17,9.514,22.641,14.621,40.038,15.183c1.248,0.04,2.467,0.06,3.644,0.06c38.785,0,40.832-20.887,40.9-21.777
		c0.037-0.48-0.16-0.949-0.529-1.262l-0.631-0.531c-0.09-0.178-0.215-0.338-0.369-0.469l-0.631-0.531
		c-0.09-0.178-0.215-0.338-0.369-0.469l-6.334-5.334c-0.373-0.314-0.879-0.428-1.354-0.301c-0.473,0.127-0.854,0.477-1.022,0.936
		c-0.972,2.674-7.306,16.014-36.59,16.014c-10.787,0-19.76-3.238-26.669-9.627c-4.2-4.543-7.383-10.234-9.478-16.941l66.979,0.068
		c0.001,0,0.001,0,0.002,0c0.726,0,1.348-0.52,1.476-1.234l1.279-7.109c0.079-0.438-0.04-0.887-0.325-1.227
		c-0.189-0.227-0.438-0.391-0.715-0.475c-0.059-0.189-0.154-0.369-0.285-0.525c-0.189-0.227-0.438-0.391-0.715-0.475
		c-0.059-0.189-0.154-0.369-0.285-0.525c-0.285-0.342-0.706-0.539-1.15-0.539H78.927l-3.888,0.023
		c-0.006-0.045-0.011-0.09-0.016-0.135l-0.154-2.154c-0.004-0.74,0.049-1.492,0.108-2.287l4.958,0.053h67.292
		c0.726,0,1.348-0.52,1.476-1.234l1.511-8.391c0.078-0.438-0.041-0.889-0.326-1.229c-0.189-0.227-0.438-0.389-0.715-0.473
		c-0.059-0.191-0.154-0.371-0.285-0.527c-0.189-0.227-0.438-0.389-0.715-0.473c-0.059-0.191-0.154-0.371-0.285-0.527
		c-0.285-0.342-0.707-0.537-1.15-0.537c-0.001,0-0.001,0-0.002,0l-69.499,0.078c6.199-14.479,22.484-25.656,39.61-26.916
		c0.702-0.051,1.42-0.078,2.135-0.078c17.686,0,33.872,15.822,34.034,15.98c0.326,0.324,0.783,0.48,1.242,0.424
		c0.457-0.059,0.861-0.322,1.1-0.717l7-11.666c0.324-0.541,0.275-1.229-0.123-1.719
		C162.191,218.768,161.768,218.256,160.902,217.445z"/>
	<g>
		<path fill="#C0AA55" d="M157.902,214.445c-0.213-0.23-0.539-0.568-1-1c-2.283-2.48-14.684-14.199-45.149-14.508l-0.527-0.003
			c-27.374,0-47.448,21.231-52.863,41.624l-13.63,0.045c-0.776,0.004-1.422,0.598-1.489,1.371l-0.666,7.666
			c-0.037,0.418,0.103,0.83,0.385,1.141c0.184,0.201,0.417,0.348,0.674,0.426c0.064,0.211,0.175,0.406,0.326,0.574
			c0.184,0.201,0.417,0.348,0.674,0.426c0.064,0.211,0.175,0.406,0.326,0.574c0.282,0.309,0.68,0.486,1.099,0.49l10.789,0.074
			c0.013,0.414,0.032,0.809,0.058,1.193c0.088,1.293,0.204,2.607,0.345,3.926l-13.531,0.139c-0.421,0.006-0.821,0.186-1.102,0.5
			c-0.281,0.312-0.417,0.73-0.375,1.15l0.667,6.666c0.062,0.617,0.491,1.115,1.057,1.287c0.146,0.48,0.524,0.855,1,1
			c0.188,0.619,0.761,1.061,1.43,1.064l12.955,0.049c2.569,9.934,7.05,18.049,13.295,24.098c0.338,0.354,0.685,0.697,1.001,1.002
			c9.17,9.514,22.641,14.621,40.038,15.183c1.248,0.04,2.467,0.06,3.644,0.06c38.785,0,40.832-20.887,40.9-21.777
			c0.037-0.48-0.16-0.949-0.529-1.262l-0.631-0.531c-0.09-0.178-0.215-0.338-0.369-0.469l-0.631-0.531
			c-0.09-0.178-0.215-0.338-0.369-0.469l-6.333-5.334c-0.374-0.314-0.879-0.428-1.354-0.301c-0.473,0.127-0.854,0.477-1.022,0.936
			c-0.972,2.674-7.306,16.014-36.59,16.014c-10.787,0-19.76-3.238-26.669-9.627c-4.2-4.543-7.383-10.234-9.478-16.941l66.979,0.068
			c0.001,0,0.001,0,0.002,0c0.726,0,1.348-0.52,1.476-1.234l1.279-7.109c0.079-0.438-0.04-0.887-0.325-1.227
			c-0.189-0.227-0.438-0.391-0.715-0.475c-0.059-0.189-0.154-0.369-0.285-0.525c-0.189-0.227-0.438-0.391-0.715-0.475
			c-0.059-0.189-0.154-0.369-0.285-0.525c-0.285-0.342-0.706-0.539-1.15-0.539H75.927l-3.888,0.023
			c-0.006-0.045-0.011-0.09-0.016-0.135l-0.154-2.154c-0.004-0.74,0.049-1.492,0.108-2.287l4.958,0.053h67.292
			c0.726,0,1.348-0.52,1.476-1.234l1.511-8.391c0.079-0.438-0.04-0.889-0.325-1.229c-0.189-0.227-0.438-0.389-0.715-0.473
			c-0.059-0.191-0.154-0.371-0.285-0.527c-0.189-0.227-0.438-0.389-0.715-0.473c-0.059-0.191-0.154-0.371-0.285-0.527
			c-0.285-0.342-0.707-0.537-1.15-0.537c-0.001,0-0.001,0-0.002,0l-69.499,0.078c6.199-14.479,22.484-25.656,39.61-26.916
			c0.702-0.051,1.42-0.078,2.135-0.078c17.686,0,33.872,15.822,34.034,15.98c0.326,0.324,0.783,0.48,1.242,0.424
			c0.457-0.059,0.861-0.322,1.1-0.717l7-11.666c0.324-0.541,0.275-1.229-0.123-1.719
			C159.191,215.768,158.768,215.256,157.902,214.445z"/>
		<path opacity="0.75" fill="#F6EB16" d="M112.405,300.437c-23.118,0-35.464-14.495-40.15-31.569l68.984,0.07l1.279-7.109H77.936
			L71,261.869c-0.162-1.307-0.34-2.381-0.474-3.547l-0.157-2.25c-0.008-1.262,0.14-2.531,0.207-3.811l6.359,0.066h67.292
			l1.511-8.391l-74.355,0.084c5.02-17.307,23.449-30.527,42.354-31.918c19.421-1.428,37.334,16.334,37.334,16.334l7-11.666
			c0,0-11.333-14-44.334-14.334c-26.566-0.27-47.141,20.414-52.205,41.617l-14.795,0.049l-0.666,7.668l14.306,0.098
			c-0.081,1.535-0.074,3.061,0.027,4.568c0.124,1.828,0.302,3.67,0.53,5.51l-15.197,0.156l0.667,6.668l15.672,0.059
			c4.317,20.469,17.229,39.163,51.661,40.273c41.334,1.333,43-20.332,43-20.332l-6.332-5.334
			C149.073,287.104,141.739,300.437,112.405,300.437z"/>
		<path opacity="0.3" fill="#55463E" d="M113.405,301.437c-23.118,0-35.464-14.495-40.15-31.569l68.984,0.07l1.279-7.109H78.936
			L72,262.869c-0.162-1.307-0.34-2.381-0.474-3.547l-0.157-2.25c-0.008-1.262,0.14-2.531,0.207-3.811l6.359,0.066h67.292
			l1.511-8.391l-74.355,0.084c5.02-17.307,23.449-30.527,42.354-31.918c19.421-1.428,37.334,16.334,37.334,16.334l7-11.666
			c0,0-11.333-14-44.334-14.334c-26.566-0.27-47.141,20.414-52.205,41.617l-14.795,0.049l-0.666,7.668l14.306,0.098
			c-0.081,1.535-0.074,3.061,0.027,4.568c0.124,1.828,0.302,3.67,0.53,5.51l-15.197,0.156l0.667,6.668l15.672,0.059
			c4.317,20.469,17.229,39.163,51.661,40.273c41.334,1.333,43-20.332,43-20.332l-6.332-5.334
			C150.072,288.104,142.739,301.437,113.405,301.437z"/>
		<path opacity="0.75" fill="#FEE31C" d="M111.405,299.437c-23.118,0-35.464-14.495-40.15-31.569l68.984,0.07l1.279-7.109H76.936
			L70,260.869c-0.162-1.307-0.34-2.381-0.474-3.547l-0.157-2.25c-0.008-1.262,0.14-2.531,0.207-3.811l6.359,0.066h67.292
			l1.511-8.391l-74.355,0.084c5.02-17.307,23.449-30.527,42.354-31.918c19.421-1.428,37.334,16.334,37.334,16.334l7-11.666
			c0,0-11.333-14-44.334-14.334c-26.566-0.27-47.141,20.414-52.205,41.617l-14.795,0.049l-0.666,7.668l14.306,0.098
			c-0.081,1.535-0.074,3.061,0.027,4.568c0.124,1.828,0.302,3.67,0.53,5.51l-15.197,0.156l0.667,6.668l15.672,0.059
			c4.317,20.469,17.229,39.163,51.661,40.273c41.334,1.333,43-20.332,43-20.332l-6.333-5.334
			C148.073,286.104,140.739,299.437,111.405,299.437z"/>
		<linearGradient id="SVGID_7_" gradientUnits="userSpaceOnUse" x1="74.0757" y1="296.4414" x2="155.9354" y2="214.5817">
			<stop  offset="0" style="stop-color:#603A17;stop-opacity:0.4"/>
			<stop  offset="0.0433" style="stop-color:#643F1C;stop-opacity:0.3653"/>
			<stop  offset="0.114" style="stop-color:#6F4B2A;stop-opacity:0.3088"/>
			<stop  offset="0.2033" style="stop-color:#846245;stop-opacity:0.2373"/>
			<stop  offset="0.3077" style="stop-color:#A4886F;stop-opacity:0.1538"/>
			<stop  offset="0.4234" style="stop-color:#D2C4B6;stop-opacity:0.0613"/>
			<stop  offset="0.5" style="stop-color:#FFFFFF;stop-opacity:0"/>
			<stop  offset="0.5487" style="stop-color:#D6C9BC;stop-opacity:0.039"/>
			<stop  offset="0.6141" style="stop-color:#B19983;stop-opacity:0.0912"/>
			<stop  offset="0.6803" style="stop-color:#95775B;stop-opacity:0.1442"/>
			<stop  offset="0.746" style="stop-color:#805E40;stop-opacity:0.1968"/>
			<stop  offset="0.8111" style="stop-color:#714E2C;stop-opacity:0.2489"/>
			<stop  offset="0.8755" style="stop-color:#674320;stop-opacity:0.3004"/>
			<stop  offset="0.9389" style="stop-color:#623D19;stop-opacity:0.3511"/>
			<stop  offset="1" style="stop-color:#603A17;stop-opacity:0.4"/>
		</linearGradient>
		<path opacity="0.65" fill="url(#SVGID_7_)" d="M112.405,300.437c-23.118,0-35.464-14.495-40.15-31.569l68.984,0.07l1.279-7.109
			H77.936L71,261.869c-0.162-1.307-0.34-2.381-0.474-3.547l-0.157-2.25c-0.008-1.262,0.14-2.531,0.207-3.811l6.359,0.066h67.292
			l1.511-8.391l-74.355,0.084c5.02-17.307,23.449-30.527,42.354-31.918c19.421-1.428,37.334,16.334,37.334,16.334l7-11.666
			c0,0-11.333-14-44.334-14.334c-26.566-0.27-47.141,20.414-52.205,41.617l-14.795,0.049l-0.666,7.668l14.306,0.098
			c-0.081,1.535-0.074,3.061,0.027,4.568c0.124,1.828,0.302,3.67,0.53,5.51l-15.197,0.156l0.667,6.668l15.672,0.059
			c4.317,20.469,17.229,39.163,51.661,40.273c41.334,1.333,43-20.332,43-20.332l-6.332-5.334
			C149.073,287.104,141.739,300.437,112.405,300.437z"/>
	</g>
</g>
</svg>
